<mxfile host="app.diagrams.net" modified="2022-08-31T04:18:49.705Z" agent="5.0 (iPad; CPU OS 15_6 like Mac OS X) AppleWebKit/605.1.15 (KHTML, like Gecko) CriOS/104.0.5112.99 Mobile/15E148 Safari/604.1" etag="_aYI2E-hKgSd4zhi8uIo" version="20.2.7" type="github">
  <diagram id="YutU52uKqoBFwzCYDEW1" name="Page-1">
    <mxGraphModel dx="773" dy="1769" grid="1" gridSize="10" guides="1" tooltips="1" connect="1" arrows="1" fold="1" page="1" pageScale="1" pageWidth="827" pageHeight="1169" math="0" shadow="0">
      <root>
        <mxCell id="0" />
        <mxCell id="1" parent="0" />
        <mxCell id="4Lhq34eAYhM8Z0_7OMXD-4" value="Take a bath" style="rounded=0;whiteSpace=wrap;html=1;fillColor=#d5e8d4;strokeColor=#82b366;" vertex="1" parent="1">
          <mxGeometry x="260" y="240" width="120" height="40" as="geometry" />
        </mxCell>
        <mxCell id="4Lhq34eAYhM8Z0_7OMXD-22" value="" style="edgeStyle=orthogonalEdgeStyle;rounded=0;orthogonalLoop=1;jettySize=auto;html=1;" edge="1" parent="1" source="4Lhq34eAYhM8Z0_7OMXD-5" target="4Lhq34eAYhM8Z0_7OMXD-6">
          <mxGeometry relative="1" as="geometry" />
        </mxCell>
        <mxCell id="4Lhq34eAYhM8Z0_7OMXD-5" value="Take a bath" style="rounded=0;whiteSpace=wrap;html=1;fillColor=#d5e8d4;strokeColor=#82b366;" vertex="1" parent="1">
          <mxGeometry x="420" y="240" width="120" height="40" as="geometry" />
        </mxCell>
        <mxCell id="4Lhq34eAYhM8Z0_7OMXD-6" value="Eat" style="rounded=0;whiteSpace=wrap;html=1;fillColor=#d5e8d4;strokeColor=#82b366;" vertex="1" parent="1">
          <mxGeometry x="420" y="320" width="120" height="40" as="geometry" />
        </mxCell>
        <mxCell id="4Lhq34eAYhM8Z0_7OMXD-12" value="" style="endArrow=classic;html=1;rounded=0;entryX=0.5;entryY=0;entryDx=0;entryDy=0;" edge="1" parent="1" target="4Lhq34eAYhM8Z0_7OMXD-43">
          <mxGeometry width="50" height="50" relative="1" as="geometry">
            <mxPoint x="400" y="70" as="sourcePoint" />
            <mxPoint x="220" y="100" as="targetPoint" />
          </mxGeometry>
        </mxCell>
        <mxCell id="4Lhq34eAYhM8Z0_7OMXD-14" value="Eat food on car" style="rounded=0;whiteSpace=wrap;html=1;fillColor=#d5e8d4;strokeColor=#82b366;" vertex="1" parent="1">
          <mxGeometry x="260" y="400" width="120" height="40" as="geometry" />
        </mxCell>
        <mxCell id="4Lhq34eAYhM8Z0_7OMXD-16" value="" style="endArrow=classic;html=1;rounded=0;exitX=0.5;exitY=1;exitDx=0;exitDy=0;entryX=0.5;entryY=0;entryDx=0;entryDy=0;" edge="1" parent="1" source="4Lhq34eAYhM8Z0_7OMXD-4" target="4Lhq34eAYhM8Z0_7OMXD-34">
          <mxGeometry width="50" height="50" relative="1" as="geometry">
            <mxPoint x="220" y="290" as="sourcePoint" />
            <mxPoint x="210" y="320" as="targetPoint" />
            <Array as="points">
              <mxPoint x="320" y="310" />
            </Array>
          </mxGeometry>
        </mxCell>
        <mxCell id="4Lhq34eAYhM8Z0_7OMXD-19" value="Get in car" style="rounded=0;whiteSpace=wrap;html=1;fillColor=#d5e8d4;strokeColor=#82b366;" vertex="1" parent="1">
          <mxGeometry x="420" y="400" width="120" height="40" as="geometry" />
        </mxCell>
        <mxCell id="4Lhq34eAYhM8Z0_7OMXD-20" value="" style="endArrow=classic;html=1;rounded=0;exitX=0.5;exitY=1;exitDx=0;exitDy=0;entryX=0;entryY=0;entryDx=0;entryDy=0;" edge="1" parent="1" source="4Lhq34eAYhM8Z0_7OMXD-14" target="4Lhq34eAYhM8Z0_7OMXD-23">
          <mxGeometry width="50" height="50" relative="1" as="geometry">
            <mxPoint x="340" y="310" as="sourcePoint" />
            <mxPoint x="210" y="410" as="targetPoint" />
          </mxGeometry>
        </mxCell>
        <mxCell id="4Lhq34eAYhM8Z0_7OMXD-21" value="" style="endArrow=classic;html=1;rounded=0;exitX=0.5;exitY=1;exitDx=0;exitDy=0;entryX=0.5;entryY=0;entryDx=0;entryDy=0;" edge="1" parent="1" source="4Lhq34eAYhM8Z0_7OMXD-6" target="4Lhq34eAYhM8Z0_7OMXD-19">
          <mxGeometry width="50" height="50" relative="1" as="geometry">
            <mxPoint x="340" y="310" as="sourcePoint" />
            <mxPoint x="490" y="390" as="targetPoint" />
          </mxGeometry>
        </mxCell>
        <mxCell id="4Lhq34eAYhM8Z0_7OMXD-23" value="Arrive at school" style="rounded=0;whiteSpace=wrap;html=1;fillColor=#e1d5e7;strokeColor=#9673a6;" vertex="1" parent="1">
          <mxGeometry x="340" y="480" width="120" height="40" as="geometry" />
        </mxCell>
        <mxCell id="4Lhq34eAYhM8Z0_7OMXD-24" value="" style="endArrow=classic;html=1;rounded=0;entryX=1;entryY=0;entryDx=0;entryDy=0;exitX=0.5;exitY=1;exitDx=0;exitDy=0;" edge="1" parent="1" source="4Lhq34eAYhM8Z0_7OMXD-19" target="4Lhq34eAYhM8Z0_7OMXD-23">
          <mxGeometry width="50" height="50" relative="1" as="geometry">
            <mxPoint x="370" y="480" as="sourcePoint" />
            <mxPoint x="280" y="520" as="targetPoint" />
          </mxGeometry>
        </mxCell>
        <mxCell id="4Lhq34eAYhM8Z0_7OMXD-25" value="Go up elevator" style="rounded=0;whiteSpace=wrap;html=1;fillColor=#e1d5e7;strokeColor=#9673a6;" vertex="1" parent="1">
          <mxGeometry x="340" y="560" width="120" height="40" as="geometry" />
        </mxCell>
        <mxCell id="4Lhq34eAYhM8Z0_7OMXD-26" value="" style="endArrow=classic;html=1;rounded=0;entryX=0.5;entryY=0;entryDx=0;entryDy=0;exitX=0.5;exitY=1;exitDx=0;exitDy=0;" edge="1" parent="1" source="4Lhq34eAYhM8Z0_7OMXD-23" target="4Lhq34eAYhM8Z0_7OMXD-25">
          <mxGeometry relative="1" as="geometry">
            <mxPoint x="200" y="590" as="sourcePoint" />
            <mxPoint x="320" y="660" as="targetPoint" />
          </mxGeometry>
        </mxCell>
        <mxCell id="4Lhq34eAYhM8Z0_7OMXD-28" value="Go to classroom" style="rounded=0;whiteSpace=wrap;html=1;fillColor=#e1d5e7;strokeColor=#9673a6;" vertex="1" parent="1">
          <mxGeometry x="340" y="640" width="120" height="40" as="geometry" />
        </mxCell>
        <mxCell id="4Lhq34eAYhM8Z0_7OMXD-29" value="" style="endArrow=classic;html=1;rounded=0;exitX=0.5;exitY=1;exitDx=0;exitDy=0;entryX=0.5;entryY=0;entryDx=0;entryDy=0;" edge="1" parent="1" source="4Lhq34eAYhM8Z0_7OMXD-25" target="4Lhq34eAYhM8Z0_7OMXD-28">
          <mxGeometry width="50" height="50" relative="1" as="geometry">
            <mxPoint x="240" y="680" as="sourcePoint" />
            <mxPoint x="290" y="630" as="targetPoint" />
          </mxGeometry>
        </mxCell>
        <mxCell id="4Lhq34eAYhM8Z0_7OMXD-30" value="Learn" style="rounded=0;whiteSpace=wrap;html=1;fillColor=#e1d5e7;strokeColor=#9673a6;" vertex="1" parent="1">
          <mxGeometry x="340" y="720" width="120" height="40" as="geometry" />
        </mxCell>
        <mxCell id="4Lhq34eAYhM8Z0_7OMXD-31" value="" style="endArrow=classic;html=1;rounded=0;exitX=0.5;exitY=1;exitDx=0;exitDy=0;entryX=0.5;entryY=0;entryDx=0;entryDy=0;" edge="1" parent="1" source="4Lhq34eAYhM8Z0_7OMXD-28" target="4Lhq34eAYhM8Z0_7OMXD-30">
          <mxGeometry width="50" height="50" relative="1" as="geometry">
            <mxPoint x="280" y="730" as="sourcePoint" />
            <mxPoint x="330" y="680" as="targetPoint" />
          </mxGeometry>
        </mxCell>
        <mxCell id="4Lhq34eAYhM8Z0_7OMXD-34" value="Get on car" style="rounded=0;whiteSpace=wrap;html=1;fillColor=#d5e8d4;strokeColor=#82b366;" vertex="1" parent="1">
          <mxGeometry x="260" y="320" width="120" height="40" as="geometry" />
        </mxCell>
        <mxCell id="4Lhq34eAYhM8Z0_7OMXD-35" value="" style="endArrow=classic;html=1;rounded=0;exitX=0.5;exitY=1;exitDx=0;exitDy=0;entryX=0.5;entryY=0;entryDx=0;entryDy=0;" edge="1" parent="1" source="4Lhq34eAYhM8Z0_7OMXD-34" target="4Lhq34eAYhM8Z0_7OMXD-14">
          <mxGeometry width="50" height="50" relative="1" as="geometry">
            <mxPoint x="270" y="420" as="sourcePoint" />
            <mxPoint x="210" y="400" as="targetPoint" />
          </mxGeometry>
        </mxCell>
        <mxCell id="4Lhq34eAYhM8Z0_7OMXD-40" value="Wake &amp;nbsp;Up" style="rhombus;whiteSpace=wrap;html=1;fillColor=#dae8fc;strokeColor=#6c8ebf;" vertex="1" parent="1">
          <mxGeometry x="335" y="-10" width="130" height="80" as="geometry" />
        </mxCell>
        <mxCell id="4Lhq34eAYhM8Z0_7OMXD-43" value="Check Time" style="rounded=0;whiteSpace=wrap;html=1;fillColor=#dae8fc;strokeColor=#6c8ebf;" vertex="1" parent="1">
          <mxGeometry x="340" y="100" width="120" height="40" as="geometry" />
        </mxCell>
        <mxCell id="4Lhq34eAYhM8Z0_7OMXD-46" value="Late" style="rounded=0;whiteSpace=wrap;html=1;fillColor=#f8cecc;strokeColor=#b85450;" vertex="1" parent="1">
          <mxGeometry x="260" y="160" width="120" height="40" as="geometry" />
        </mxCell>
        <mxCell id="4Lhq34eAYhM8Z0_7OMXD-44" value="Early" style="rounded=0;whiteSpace=wrap;html=1;fillColor=#fff2cc;strokeColor=#d6b656;" vertex="1" parent="1">
          <mxGeometry x="420" y="160" width="120" height="40" as="geometry" />
        </mxCell>
        <mxCell id="4Lhq34eAYhM8Z0_7OMXD-47" value="" style="endArrow=classic;html=1;rounded=0;exitX=1;exitY=1;exitDx=0;exitDy=0;entryX=0.5;entryY=0;entryDx=0;entryDy=0;" edge="1" parent="1" source="4Lhq34eAYhM8Z0_7OMXD-43" target="4Lhq34eAYhM8Z0_7OMXD-44">
          <mxGeometry width="50" height="50" relative="1" as="geometry">
            <mxPoint x="290" y="140" as="sourcePoint" />
            <mxPoint x="340" y="90" as="targetPoint" />
          </mxGeometry>
        </mxCell>
        <mxCell id="4Lhq34eAYhM8Z0_7OMXD-48" value="" style="endArrow=classic;html=1;rounded=0;entryX=0.5;entryY=0;entryDx=0;entryDy=0;exitX=0;exitY=1;exitDx=0;exitDy=0;" edge="1" parent="1" source="4Lhq34eAYhM8Z0_7OMXD-43" target="4Lhq34eAYhM8Z0_7OMXD-46">
          <mxGeometry width="50" height="50" relative="1" as="geometry">
            <mxPoint x="290" y="140" as="sourcePoint" />
            <mxPoint x="340" y="90" as="targetPoint" />
          </mxGeometry>
        </mxCell>
        <mxCell id="4Lhq34eAYhM8Z0_7OMXD-52" value="" style="endArrow=classic;html=1;rounded=0;exitX=0.5;exitY=1;exitDx=0;exitDy=0;entryX=0.5;entryY=0;entryDx=0;entryDy=0;" edge="1" parent="1" source="4Lhq34eAYhM8Z0_7OMXD-44" target="4Lhq34eAYhM8Z0_7OMXD-5">
          <mxGeometry width="50" height="50" relative="1" as="geometry">
            <mxPoint x="310" y="290" as="sourcePoint" />
            <mxPoint x="360" y="240" as="targetPoint" />
          </mxGeometry>
        </mxCell>
        <mxCell id="4Lhq34eAYhM8Z0_7OMXD-53" value="" style="endArrow=classic;html=1;rounded=0;exitX=0.5;exitY=1;exitDx=0;exitDy=0;entryX=0.5;entryY=0;entryDx=0;entryDy=0;" edge="1" parent="1" source="4Lhq34eAYhM8Z0_7OMXD-46" target="4Lhq34eAYhM8Z0_7OMXD-4">
          <mxGeometry width="50" height="50" relative="1" as="geometry">
            <mxPoint x="310" y="290" as="sourcePoint" />
            <mxPoint x="360" y="240" as="targetPoint" />
          </mxGeometry>
        </mxCell>
        <mxCell id="4Lhq34eAYhM8Z0_7OMXD-56" value="" style="endArrow=classic;html=1;rounded=0;exitX=0.5;exitY=1;exitDx=0;exitDy=0;" edge="1" parent="1" source="4Lhq34eAYhM8Z0_7OMXD-30">
          <mxGeometry width="50" height="50" relative="1" as="geometry">
            <mxPoint x="370" y="850" as="sourcePoint" />
            <mxPoint x="400" y="800" as="targetPoint" />
          </mxGeometry>
        </mxCell>
        <mxCell id="4Lhq34eAYhM8Z0_7OMXD-57" value="End" style="rounded=1;whiteSpace=wrap;html=1;" vertex="1" parent="1">
          <mxGeometry x="340" y="800" width="120" height="40" as="geometry" />
        </mxCell>
      </root>
    </mxGraphModel>
  </diagram>
</mxfile>
